<svg preserveAspectRatio="none" width="100%" height="100%" overflow="visible" style="display: block;" viewBox="0 0 22 22" fill="none" xmlns="http://www.w3.org/2000/svg">
<g id="Maybe Small">
<path id="Oval" d="M11 22C17.0751 22 22 17.0751 22 11C22 4.92487 17.0751 0 11 0C4.92487 0 0 4.92487 0 11C0 17.0751 4.92487 22 11 22Z" fill="var(--fill-0, #DEB8DC)"/>
<mask id="mask0_0_1253" style="mask-type:alpha" maskUnits="userSpaceOnUse" x="0" y="0" width="22" height="22">
<g id="mask 2">
<path id="Vector" d="M11 22C17.0751 22 22 17.0751 22 11C22 4.92487 17.0751 0 11 0C4.92487 0 0 4.92487 0 11C0 17.0751 4.92487 22 11 22Z" fill="var(--fill-0, white)"/>
</g>
</mask>
<g mask="url(#mask0_0_1253)">
<path id="Oval_2" d="M11.06 18.88C15.4451 18.88 19 15.3251 19 10.94C19 6.55486 15.4451 3 11.06 3C6.67485 3 3.12 6.55486 3.12 10.94C3.12 15.3251 6.67485 18.88 11.06 18.88Z" fill="var(--fill-0, #F9F0F8)"/>
<path id="Path" d="M9.36 11.87H10.68" stroke="var(--stroke-0, #523951)" stroke-linecap="round" stroke-linejoin="round"/>
<path id="Oval_3" d="M7.64999 9.33C8.20228 9.33 8.64999 8.88228 8.64999 8.33C8.64999 7.77772 8.20228 7.33 7.64999 7.33C7.09771 7.33 6.64999 7.77772 6.64999 8.33C6.64999 8.88228 7.09771 9.33 7.64999 9.33Z" fill="var(--fill-0, #523951)"/>
<path id="Oval_4" d="M13.7 9.79C14.2523 9.79 14.7 9.34228 14.7 8.79C14.7 8.23772 14.2523 7.79 13.7 7.79C13.1477 7.79 12.7 8.23772 12.7 8.79C12.7 9.34228 13.1477 9.79 13.7 9.79Z" fill="var(--fill-0, #523951)"/>
<path id="Path_2" d="M13.1 6.37C13.5502 6.19478 14.0498 6.19478 14.5 6.37C14.9629 6.49872 15.3641 6.7898 15.63 7.19" stroke="var(--stroke-0, #523951)" stroke-linecap="round" stroke-linejoin="round"/>
<path id="Path_3" d="M5.77 3.93C6.11398 3.59187 6.56856 3.38944 7.05 3.36C7.52585 3.29678 8.00856 3.40681 8.41 3.67" stroke="var(--stroke-0, #523951)" stroke-linecap="round" stroke-linejoin="round"/>
<path id="Path_4" d="M10.17 3.1C10.4656 3.06812 10.7627 3.05143 11.06 3.04996C14.848 3.03853 18.1248 5.68535 18.9103 9.39104C19.6958 13.0967 17.7747 16.8454 14.3078 18.3717C10.8409 19.8981 6.77873 18.7838 4.57594 15.7021C2.37314 12.6204 2.63363 8.4162 5.2 5.63" stroke="var(--stroke-0, #523951)" stroke-linecap="round" stroke-linejoin="round"/>
<path id="Path_5" fill-rule="evenodd" clip-rule="evenodd" d="M6.84 15.2L12.16 14.31C12.3896 14.2727 12.6246 14.3289 12.8125 14.466C13.0004 14.6032 13.1256 14.8099 13.16 15.04C13.2116 15.5086 12.9008 15.9404 12.44 16.04L10.22 16.41C10.4113 16.3816 10.6059 16.4312 10.7602 16.5479C10.9144 16.6645 11.0153 16.8382 11.04 17.03C11.1036 17.416 10.8598 17.7861 10.48 17.88C10.6862 17.9904 10.83 18.1896 10.87 18.42C10.9265 18.7808 10.7219 19.1316 10.38 19.26C10.495 19.4041 10.5521 19.586 10.54 19.77C10.5017 20.1377 10.2164 20.4312 9.85 20.48L9.59 20.54C8.85 20.69 8.34 20.78 7.59 20.87C6.81282 20.8801 6.03633 20.8198 5.27 20.69C4.74279 20.5804 4.31294 20.2 4.14 19.69C3.64 18.64 3.36 16.69 3.98 16.09C4.6 15.49 4.5 15.65 4.79 14.97C5.08 14.29 5.4 13.51 5.63 12.84C5.86 12.17 5.96 11.84 6.41 11.72C6.84522 11.5832 7.31223 11.8057 7.48 12.23C7.55061 12.6962 7.53024 13.1716 7.42 13.63C7.29977 14.1092 7.29977 14.6108 7.42 15.09" fill="var(--fill-0, #F9F0F8)"/>
<path id="Path_6" fill-rule="evenodd" clip-rule="evenodd" d="M12.16 14.31C12.3896 14.2727 12.6246 14.3289 12.8125 14.466C13.0004 14.6032 13.1256 14.8099 13.16 15.04C13.2116 15.5086 12.9008 15.9404 12.44 16.04L10.22 16.41C10.4113 16.3816 10.6059 16.4312 10.7602 16.5479C10.9144 16.6645 11.0153 16.8382 11.04 17.03C11.1036 17.416 10.8598 17.7861 10.48 17.88C10.6862 17.9904 10.83 18.1896 10.87 18.42C10.9265 18.7808 10.7219 19.1316 10.38 19.26C10.495 19.4041 10.5521 19.586 10.54 19.77C10.5017 20.1377 10.2164 20.4312 9.85 20.48L9.59 20.54C8.85 20.69 8.34 20.78 7.59 20.87C6.81282 20.8801 6.03633 20.8198 5.27 20.69C4.74279 20.5804 4.31294 20.2 4.14 19.69C3.64 18.64 3.36 16.69 3.98 16.09C4.6 15.49 4.5 15.65 4.79 14.97C5.08 14.29 5.4 13.51 5.63 12.84C5.86 12.17 5.96 11.84 6.41 11.72C6.84522 11.5832 7.31223 11.8057 7.48 12.23C7.55061 12.6962 7.53024 13.1716 7.42 13.63C7.29977 14.1092 7.29977 14.6108 7.42 15.09L12.16 14.31Z" stroke="var(--stroke-0, #523951)" stroke-linecap="round" stroke-linejoin="round"/>
</g>
</g>
</svg>
