<svg preserveAspectRatio="none" width="100%" height="100%" overflow="visible" style="display: block;" viewBox="0 0 14 14" fill="none" xmlns="http://www.w3.org/2000/svg">
<g id="Support XSmall Consumption">
<mask id="mask0_0_1550" style="mask-type:alpha" maskUnits="userSpaceOnUse" x="0" y="0" width="14" height="14">
<path id="Vector" d="M7 14C10.866 14 14 10.866 14 7C14 3.13401 10.866 0 7 0C3.13401 0 0 3.13401 0 7C0 10.866 3.13401 14 7 14Z" fill="var(--fill-0, white)"/>
</mask>
<g mask="url(#mask0_0_1550)">
<path id="Oval" d="M7 14C10.866 14 14 10.866 14 7C14 3.13401 10.866 0 7 0C3.13401 0 0 3.13401 0 7C0 10.866 3.13401 14 7 14Z" fill="var(--fill-0, #BBA9D1)"/>
<path id="Path" d="M5.54524 9.61668H5.41218C5.38791 9.62014 5.36327 9.62014 5.339 9.61668C5.1128 9.53352 3.96185 9.09443 3.19012 8.87821C3.09353 8.85086 3.02275 8.76828 3.01049 8.66865C2.97953 8.49375 3.0177 8.31366 3.11694 8.16635C3.19439 8.06038 3.31833 7.99841 3.44958 8.00003C3.51645 7.99943 3.5829 8.01069 3.64584 8.0333C3.79934 8.09282 3.94206 8.1771 4.0683 8.28278L4.12485 8.3227L4.48078 8.57218C4.61384 8.66532 4.73026 8.74515 4.81342 8.80836L5.64504 9.141C5.75813 9.1909 6.22716 9.40379 6.20055 9.52022C6.17394 9.63664 5.67165 9.62666 5.55855 9.62999L5.54524 9.61668Z" fill="var(--fill-0, #FEF2FF)"/>
<path id="Path_2" d="M14.4725 13.0692C13.279 13.0468 12.0892 12.9371 10.914 12.7411H10.8473C9.95634 12.626 9.07467 12.455 8.20827 12.2292C7.43972 12.0127 6.6817 11.7305 5.94824 11.4615L5.62187 11.3434C4.92 11.0874 4.36201 10.8742 3.84613 10.6707L3.65312 10.5953C3.34346 10.4817 3.04217 10.349 2.75121 10.1983C2.34763 9.97845 2.22481 9.69628 2.40027 9.36161V9.33537C2.50608 9.12818 2.73816 9.004 2.98283 9.02367H3.02845C3.08689 9.02042 3.14548 9.02042 3.20392 9.02367C3.84262 9.08929 5.69206 9.7455 6.05703 9.87674L7.25021 9.91611H7.27829L9.97699 10.0014C9.76643 9.82424 9.23651 9.50926 7.94507 9.19756C7.69941 9.1385 7.47481 9.07288 7.42217 8.90555C7.34091 8.64561 7.43344 8.36542 7.6573 8.19356C7.82771 8.09951 8.02508 8.05711 8.22231 8.07216C8.45875 8.07268 8.69432 8.09911 8.92418 8.15091C9.06104 8.18372 9.17334 8.21653 9.27512 8.24934C9.55616 8.33884 9.84682 8.39935 10.1419 8.4298C10.6244 8.49461 11.1008 8.59444 11.5667 8.72837C13.0722 9.10569 13.3635 9.81112 13.553 10.2377C13.4934 10.0638 13.553 10.1917 13.5811 10.1261L13.6232 10.0703H13.725C13.7682 10.0736 13.8116 10.0736 13.8548 10.0703C14.1145 10.0703 14.6058 10.0474 14.6129 10.0474C14.7357 10.0474 15.3147 9.91283 15.3147 10.0211C15.3687 11.0431 15.1377 12.0606 14.6444 12.974C14.6152 13.0252 14.5619 13.0605 14.5006 13.0692H14.4725Z" fill="var(--fill-0, #EAE2F3)"/>
<g id="Shape">
</g>
<g id="Path_3">
</g>
<path id="Path_4" d="M12.2037 8.99037C12.2325 9.00701 12.268 9.00701 12.2969 8.99037H12.2037Z" fill="var(--fill-0, #D67676)"/>
<g id="Path_5">
</g>
<g id="Shape_2">
</g>
<path id="Path_6" fill-rule="evenodd" clip-rule="evenodd" d="M5.14167 2.57366C4.58669 2.00453 3.67556 1.99262 3.10589 2.54705L3.0826 2.57366C2.51384 3.15644 2.51384 4.08654 3.0826 4.66932L5.30134 6.918L7.52341 4.66599C8.09177 4.08434 8.09177 3.15531 7.52341 2.57366C7.25315 2.29434 6.88087 2.13702 6.49221 2.13789C6.10635 2.13795 5.73687 2.29389 5.46767 2.57033L5.30467 2.73665L5.14167 2.57366Z" fill="var(--fill-0, #ECAA96)"/>
<g id="Path_7">
</g>
<path id="Path " fill-rule="evenodd" clip-rule="evenodd" d="M15.9232 10.2484C16.0392 10.3277 16.0444 11.151 15.7933 11.8748C15.5422 12.5987 14.7122 13.4485 14.5793 13.5635C14.4465 13.6785 9.7263 13.0406 8.61899 12.8669C7.51168 12.6932 2.33967 10.2786 2.13185 10.1691C1.92404 10.0595 1.90513 9.27124 2.49867 9.10776C3.09222 8.94428 5.34851 9.91345 6.30253 9.99136C7.25655 10.0693 8.83987 10.1691 9.96878 10.1691C11.0977 10.1691 8.66546 9.48637 8.27273 9.34813C7.87999 9.20988 7.23769 9.03536 7.19041 8.70706C7.14312 8.37877 7.62706 8.04404 7.94902 7.95917C8.27099 7.87431 8.72506 8.04502 9.96878 8.31402C11.2125 8.58302 11.4166 8.42895 12.4166 8.81499C13.4166 9.20104 13.8893 9.78328 14 9.99136C14.1107 10.1995 15.8073 10.1691 15.9232 10.2484Z" stroke="var(--stroke-0, #493D57)"/>
<path id="Path_8" d="M3.07277 9.09234C2.84615 8.47807 3.18528 8.08754 3.58873 8.00837C3.99219 7.9292 4.7671 8.425 5.30645 8.92476C5.73954 9.32607 6.09263 9.54657 7.20465 10.0454" stroke="var(--stroke-0, #493D57)"/>
<path id="Path_9" fill-rule="evenodd" clip-rule="evenodd" d="M5.22455 2.37021C4.60562 1.77066 3.62102 1.77767 3.01068 2.38597C2.40034 2.99427 2.38911 3.97977 2.98542 4.60186L5.40048 7L7.81554 4.59865C8.17335 4.23745 8.33534 3.72579 8.25066 3.22423C8.16599 2.72268 7.84503 2.2927 7.38851 2.06924C7.17351 1.96194 6.93621 1.90708 6.69598 1.90915C6.27811 1.91092 5.87815 2.07912 5.58441 2.37661L5.40048 2.54951L5.22455 2.37021Z" stroke="var(--stroke-0, #77280C)" stroke-linecap="round" stroke-linejoin="round"/>
</g>
</g>
</svg>
